<?xml version="1.0" encoding="iso-8859-1"?>
<!-- Uploaded to: SVG Repo, www.svgrepo.com, Generator: SVG Repo Mixer Tools -->
<svg version="1.1" id="Layer_1" xmlns="http://www.w3.org/2000/svg" xmlns:xlink="http://www.w3.org/1999/xlink" 
	 viewBox="0 0 512 512" xml:space="preserve">
<circle style="fill:#9E6C0A;" cx="83.618" cy="263.717" r="74.995"/>
<path style="fill:#B07E09;" d="M408.694,412.885c-1.981,0-3.933-0.057-5.855-0.17c-16.056-0.946-25.751-5.672-35.127-10.242
	c-8.279-4.034-16.098-7.846-29.158-9.345c-20.097-2.306-41.239,2.278-62.837,13.629c-4.216,2.217-9.429,0.594-11.644-3.622
	s-0.594-9.429,3.622-11.644c24.722-12.993,49.226-18.207,72.828-15.497c15.994,1.836,25.956,6.691,34.746,10.975
	c8.57,4.177,15.972,7.785,28.586,8.528c34.827,2.058,61.38-15.961,71.311-33.569c3.717-6.59,14.908-29.768,2.856-51.343
	c-2.322-4.157-0.835-9.41,3.324-11.733c4.157-2.322,9.41-0.835,11.733,3.324c16.432,29.417,1.941,59.658-2.893,68.226
	C473.413,400.14,438.22,412.885,408.694,412.885z"/>
<path style="fill:#855914;" d="M83.617,310.594c-25.845,0-46.872-21.027-46.872-46.871c0-25.845,21.027-46.872,46.872-46.872
	s46.871,21.027,46.871,46.872C130.488,289.567,109.461,310.594,83.617,310.594z M83.617,234.096
	c-16.336,0-29.627,13.291-29.627,29.627c0,16.335,13.291,29.625,29.627,29.625s29.626-13.291,29.626-29.625
	C113.242,247.387,99.953,234.096,83.617,234.096z"/>
<circle style="fill:#B07E09;" cx="83.618" cy="188.734" r="74.995"/>
<path style="fill:#855914;" d="M83.617,235.6c-25.845,0-46.872-21.027-46.872-46.871s21.027-46.871,46.872-46.871
	s46.871,21.027,46.871,46.871S109.461,235.6,83.617,235.6z M83.617,159.103c-16.336,0-29.627,13.291-29.627,29.626
	s13.291,29.626,29.627,29.626s29.626-13.291,29.626-29.626S99.953,159.103,83.617,159.103z"/>
<circle style="fill:#BF830C;" cx="150.829" cy="223.202" r="74.995"/>
<path style="fill:#855914;" d="M150.862,270.62c-2.128,0-4.278-0.144-6.444-0.439c-12.549-1.713-23.68-8.21-31.343-18.295
	c-7.663-10.084-10.938-22.549-9.225-35.098c0.645-4.718,4.999-8.02,9.709-7.378c4.718,0.644,8.021,4.991,7.378,9.709
	c-1.09,7.985,0.994,15.916,5.87,22.333c4.876,6.418,11.958,10.551,19.943,11.641c16.487,2.252,31.724-9.331,33.974-25.814
	c0.645-4.718,4.991-8.021,9.71-7.378c4.718,0.645,8.021,4.991,7.378,9.71C194.57,253.352,174.183,270.62,150.862,270.62z"/>
<circle style="fill:#9E6C0A;" cx="428.379" cy="257.716" r="74.995"/>
<path style="fill:#855914;" d="M428.383,304.593c-25.844,0-46.871-21.027-46.871-46.871s21.027-46.871,46.871-46.871
	c25.845,0,46.872,21.027,46.872,46.871S454.229,304.593,428.383,304.593z M428.383,228.096c-16.335,0-29.625,13.291-29.625,29.626
	s13.291,29.626,29.625,29.626c16.336,0,29.627-13.291,29.627-29.626S444.719,228.096,428.383,228.096z"/>
<circle style="fill:#B07E09;" cx="428.379" cy="182.732" r="74.995"/>
<path style="fill:#855914;" d="M428.383,229.599c-25.844,0-46.871-21.027-46.871-46.871s21.027-46.871,46.871-46.871
	c25.845,0,46.872,21.027,46.872,46.871S454.229,229.599,428.383,229.599z M428.383,153.102c-16.335,0-29.625,13.291-29.625,29.626
	s13.291,29.626,29.625,29.626c16.336,0,29.627-13.291,29.627-29.626S444.719,153.102,428.383,153.102z"/>
<circle style="fill:#BF830C;" cx="361.167" cy="223.248" r="74.995"/>
<path style="fill:#855914;" d="M361.171,270.667c-26.145,0-47.416-21.271-47.416-47.417s21.271-47.416,47.416-47.416
	s47.416,21.271,47.416,47.416S387.316,270.667,361.171,270.667z M361.171,193.08c-16.636,0-30.17,13.534-30.17,30.17
	s13.534,30.172,30.17,30.172c16.636,0,30.17-13.534,30.17-30.172S377.807,193.08,361.171,193.08z"/>
<path style="fill:#AA710C;" d="M137.589,297.005c4.265,0.76,8.649,1.18,13.132,1.187h0.216
	c41.367-0.059,74.886-33.609,74.886-74.992c0-41.418-33.576-74.994-74.994-74.994c-4.521,0-8.94,0.422-13.24,1.189V297.005z"/>
<path style="fill:#774C13;" d="M137.589,250.318v18.421c2.219,0.64,4.499,1.124,6.828,1.443c2.166,0.295,4.316,0.439,6.444,0.439
	c23.322,0,43.708-17.269,46.949-41.006c0.644-4.718-2.659-9.065-7.378-9.71c-4.718-0.644-9.065,2.659-9.71,7.378
	c-2.25,16.483-17.487,28.067-33.974,25.814C143.518,252.653,140.439,251.705,137.589,250.318z"/>
<rect x="150.231" y="148.207" style="fill:#B378DD;" width="211.522" height="149.99"/>
<path style="fill:#AA710C;" d="M374.411,297.055v-147.61c-4.3-0.767-8.719-1.189-13.24-1.189c-8.196,0-16.076,1.334-23.458,3.763
	c-1.187,37.895-19.976,71.349-48.468,92.459c8.967,30.426,36.695,52.787,69.802,53.712h4.25
	C367.078,298.085,370.788,297.701,374.411,297.055z"/>
<path style="fill:#774C13;" d="M331.61,186.217c-4.1,12.256-10.133,23.622-17.728,33.751c-0.075,1.085-0.126,2.178-0.126,3.282
	c0,26.145,21.271,47.417,47.416,47.417c4.595,0,9.034-0.67,13.24-1.895v-18.418c-4,1.963-8.493,3.067-13.24,3.067
	c-16.636,0-30.17-13.534-30.17-30.172s13.534-30.17,30.17-30.17c4.747,0,9.24,1.106,13.24,3.067v-18.418
	c-4.206-1.226-8.645-1.895-13.24-1.895C349.997,175.834,339.722,179.728,331.61,186.217z"/>
<path style="fill:#755FB7;" d="M325.131,148.206L325.131,148.206c0,66.133-53.612,119.745-119.745,119.745h-55.15v30.239h211.527
	V148.206H325.131z"/>
<circle style="fill:#855914;" cx="123.501" cy="192.965" r="8.623"/>
<path d="M503.108,220.184c5.675-11.276,8.892-23.994,8.892-37.455c0-46.106-37.51-83.617-83.617-83.617
	c-29.586,0-56.54,15.37-71.64,40.472H151.26c-15.631-21.433-40.889-34.471-67.644-34.471C37.51,105.113,0,142.622,0,188.729
	c0,13.462,3.217,26.18,8.892,37.456C3.066,237.777,0,250.653,0,263.723c0,46.106,37.51,83.617,83.617,83.617
	c29.607,0,56.578-15.392,71.671-40.526h120.066c4.762,0,8.623-3.861,8.623-8.623c0-4.762-3.861-8.623-8.623-8.623H158.859v-132.74
	H353.14v131.057c-0.212,0.544-0.368,1.106-0.467,1.683H338.97c-4.762,0-8.623,3.861-8.623,8.623c0,4.762,3.861,8.623,8.623,8.623
	h21.257c0.152,0.016,0.307,0.021,0.461,0.03c15.569,21.56,40.438,34.496,67.696,34.496c20.521,0,39.328-7.444,53.895-19.756
	c4.212,17.945-4.024,34.874-7.112,40.349c-9.931,17.607-36.487,35.628-71.311,33.569c-12.615-0.744-20.016-4.352-28.586-8.528
	c-8.791-4.284-18.753-9.139-34.746-10.975c-23.6-2.709-48.105,2.504-72.828,15.497c-4.216,2.215-5.837,7.429-3.622,11.644
	c2.217,4.216,7.428,5.838,11.644,3.622c21.598-11.352,42.742-15.936,62.837-13.629c13.059,1.499,20.879,5.31,29.158,9.345
	c9.376,4.57,19.071,9.294,35.127,10.242c1.922,0.114,3.873,0.17,5.853,0.17c29.527-0.001,64.721-12.747,81.493-42.482
	c4.551-8.067,17.655-35.35,5.454-63.068C505.911,293.45,512,276.286,512,257.724C512,244.652,508.934,231.775,503.108,220.184z
	 M428.383,116.357c36.597,0,66.371,29.774,66.371,66.371c0,32.254-23.13,59.194-53.67,65.139c2.082-6.745,3.319-13.854,3.616-21.202
	c18.055-6.723,30.554-24.201,30.554-43.937c0-25.844-21.027-46.871-46.872-46.871c-11.646,0-22.692,4.287-31.226,11.929
	c-6.42-3.074-13.295-5.336-20.489-6.69C389.12,125.587,407.96,116.357,428.383,116.357z M370.387,194.533
	c12.121,3.929,20.954,15.376,20.954,28.718s-8.833,24.79-20.954,28.718V194.533z M370.387,288.967v-19.222
	c21.704-4.333,38.2-23.641,38.2-46.495s-16.496-42.161-38.2-46.495v-19.222c32.249,4.502,57.155,32.248,57.155,65.717
	S402.635,284.466,370.387,288.967z M443.411,208.241c-3.725-20.454-14.907-38.328-30.627-50.703
	c4.629-2.871,10.006-4.436,15.6-4.436c16.336,0,29.627,13.291,29.627,29.626C458.01,193.402,452.222,203.02,443.411,208.241z
	 M432.868,266.221c8.741-0.464,17.126-2.287,24.959-5.244c-1.627,14.809-14.208,26.371-29.444,26.371
	c-3.849,0-7.604-0.753-11.095-2.164C423.363,279.675,428.619,273.285,432.868,266.221z M83.234,272.336
	c4.542,6.233,9.925,11.809,15.98,16.574c-4.631,2.871-10.008,4.439-15.597,4.439c-15.236,0-27.817-11.561-29.444-26.371
	C63.223,270.395,73.013,272.29,83.234,272.336z M53.99,188.729c0-16.335,13.291-29.626,29.627-29.626
	c3.849,0,7.604,0.753,11.095,2.164c-14.677,13.311-24.604,31.758-26.948,52.47C59.418,208.417,53.99,199.072,53.99,188.729z
	 M95.129,259.221c-0.079-0.133-0.164-0.262-0.251-0.391c-6.584-10.302-10.419-22.524-10.419-35.632
	c0-33.469,24.906-61.215,57.155-65.716v94.445c-5.863-1.867-11.007-5.474-14.807-10.475c-4.876-6.416-6.96-14.348-5.87-22.333
	c0.644-4.718-2.659-9.065-7.378-9.709c-4.711-0.643-9.065,2.659-9.709,7.378c-1.713,12.549,1.564,25.014,9.225,35.098
	c7.087,9.326,17.142,15.576,28.539,17.819v19.212C122.155,286.2,105.38,275.02,95.129,259.221z M83.617,122.358
	c17.815,0,34.791,7.288,47.129,19.681c-7.258,1.797-14.141,4.542-20.518,8.101c-7.781-5.376-17.022-8.281-26.611-8.281
	c-25.845,0-46.872,21.027-46.872,46.871c0,19.924,12.72,37.533,31.042,44.119c0.865,7.489,2.724,14.676,5.44,21.434
	c-31.678-5.002-55.981-32.489-55.981-65.553C17.246,152.131,47.019,122.358,83.617,122.358z M83.617,330.093
	c-36.597,0-66.371-29.774-66.371-66.37c0-6.93,1.091-13.79,3.186-20.321c4.871,5.622,10.463,10.601,16.655,14.764
	c-0.218,1.841-0.34,3.695-0.34,5.556c0,25.844,21.027,46.871,46.872,46.871c11.634,0,22.686-4.291,31.224-11.932
	c6.421,3.074,13.297,5.337,20.492,6.691C122.881,320.863,104.039,330.093,83.617,330.093z M428.383,324.093
	c-18.151,0-34.97-7.227-47.217-19.66c7.29-1.796,14.205-4.549,20.606-8.12c7.781,5.376,17.022,8.281,26.611,8.281
	c25.845,0,46.872-21.027,46.872-46.871c0-1.863-0.122-3.717-0.34-5.557c6.191-4.162,11.783-9.142,16.655-14.764
	c2.095,6.531,3.186,13.389,3.186,20.321C494.754,294.319,464.981,324.093,428.383,324.093z"/>
<circle cx="123.501" cy="192.965" r="8.623"/>
<circle cx="307.557" cy="298.392" r="8.623"/>
</svg>